<?xml version="1.0" standalone="no"?>
<!DOCTYPE svg PUBLIC "-//W3C//DTD SVG 20010904//EN"
 "http://www.w3.org/TR/2001/REC-SVG-20010904/DTD/svg10.dtd">
<svg version="1.0" xmlns="http://www.w3.org/2000/svg"
 width="1000.000000pt" height="1000.000000pt" viewBox="0 0 1000.000000 1000.000000"
 preserveAspectRatio="xMidYMid meet">
<metadata>
Created by potrace 1.14, written by Peter Selinger 2001-2017
</metadata>
<g transform="translate(0.000000,1000.000000) scale(0.100000,-0.100000)"
fill="#000000" stroke="none">
<path d="M2665 6660 c-3 -5 -13 -10 -21 -10 -19 0 -57 -38 -78 -78 -13 -25
-16 -67 -16 -225 0 -193 0 -194 26 -233 30 -45 43 -54 99 -71 60 -19 4624 -18
4678 0 44 16 97 64 97 88 0 10 4 21 10 24 14 8 14 395 0 395 -5 0 -10 9 -10
20 0 26 -54 80 -80 80 -10 0 -22 5 -25 10 -9 14 -4671 14 -4680 0z"/>
<path d="M2659 5280 c-33 -10 -77 -48 -95 -82 -21 -40 -20 -403 1 -444 17 -35
56 -71 91 -84 34 -13 4657 -13 4702 -1 41 12 83 55 100 102 15 44 17 395 2
404 -5 3 -10 13 -10 21 0 23 -50 69 -89 82 -26 9 -595 12 -2355 11 -1277 0
-2333 -4 -2347 -9z"/>
<path d="M2670 3906 c-51 -16 -65 -26 -94 -70 -26 -39 -26 -40 -26 -231 0
-240 4 -255 93 -304 l38 -21 2334 0 c1550 0 2335 3 2335 10 0 6 8 10 18 10 25
0 82 54 82 79 0 11 5 21 10 21 6 0 10 71 10 194 0 119 -4 197 -10 201 -5 3
-10 14 -10 24 0 24 -53 72 -97 88 -52 18 -4628 17 -4683 -1z"/>
</g>
</svg>
